/* XPM */
static const char * bml3mk5_xpm[] = {
"64 64 245 2",
"  	c None",
". 	c #010101",
"+ 	c #7D756B",
"@ 	c #060606",
"# 	c #4F4A44",
"$ 	c #7F766C",
"% 	c #A39686",
"& 	c #605B53",
"* 	c #9B8F80",
"= 	c #7E766C",
"- 	c #161413",
"; 	c #8D8276",
"> 	c #0C0B0A",
", 	c #5F5951",
"' 	c #82796F",
") 	c #A19485",
"! 	c #45413C",
"~ 	c #908678",
"{ 	c #7A7268",
"] 	c #A09484",
"^ 	c #8B8175",
"/ 	c #383430",
"( 	c #9E9283",
"_ 	c #1B1917",
": 	c #7C746A",
"< 	c #867D71",
"[ 	c #7E766B",
"} 	c #5E5850",
"| 	c #83796E",
"1 	c #161513",
"2 	c #9D9081",
"3 	c #141311",
"4 	c #655E56",
"5 	c #8A8074",
"6 	c #3B3732",
"7 	c #766E65",
"8 	c #9C9081",
"9 	c #837A6F",
"0 	c #686259",
"a 	c #0D0C0B",
"b 	c #A29585",
"c 	c #93887A",
"d 	c #0A0A09",
"e 	c #746C64",
"f 	c #867D72",
"g 	c #92877A",
"h 	c #534E47",
"i 	c #92887A",
"j 	c #A09384",
"k 	c #6B645B",
"l 	c #756D64",
"m 	c #80776B",
"n 	c #8E816E",
"o 	c #645E56",
"p 	c #9C8B70",
"q 	c #DCD1BA",
"r 	c #E1D7C0",
"s 	c #E0D5BE",
"t 	c #DDD3BC",
"u 	c #AF9E81",
"v 	c #AC9B7E",
"w 	c #A9977B",
"x 	c #A69578",
"y 	c #A69477",
"z 	c #AA987C",
"A 	c #9D8C72",
"B 	c #A9977A",
"C 	c #E0D6BF",
"D 	c #DED4BD",
"E 	c #A59376",
"F 	c #3F3F39",
"G 	c #3B3C37",
"H 	c #A39278",
"I 	c #D9C19C",
"J 	c #3A3B36",
"K 	c #D7CCB4",
"L 	c #B0A896",
"M 	c #F7F0DF",
"N 	c #C0AC8B",
"O 	c #BFAB8A",
"P 	c #BEAB8A",
"Q 	c #BFAB8B",
"R 	c #7E715B",
"S 	c #7D705A",
"T 	c #83755E",
"U 	c #A18F74",
"V 	c #887962",
"W 	c #9D8C71",
"X 	c #009603",
"Y 	c #1A1713",
"Z 	c #C3B79F",
"` 	c #F6F6E8",
" .	c #F7F7E9",
"..	c #C4C4B9",
"+.	c #878173",
"@.	c #DACFB7",
"#.	c #E1D6BF",
"$.	c #F4D319",
"%.	c #F5D418",
"&.	c #BEAA8A",
"*.	c #D8CCB2",
"=.	c #555750",
"-.	c #3F403B",
";.	c #A39378",
">.	c #B4A68C",
",.	c #DFD5BD",
"'.	c #98886D",
").	c #94846A",
"!.	c #96866B",
"~.	c #DACEB5",
"{.	c #E0D7C0",
"].	c #BEB097",
"^.	c #1F1C16",
"/.	c #B9AB92",
"(.	c #5E5E54",
"_.	c #282622",
":.	c #CAC1AB",
"<.	c #D7CDB7",
"[.	c #CCC3AD",
"}.	c #1C1C1A",
"|.	c #42403A",
"1.	c #636158",
"2.	c #423A2F",
"3.	c #CCC0A8",
"4.	c #48463F",
"5.	c #51534D",
"6.	c #21211F",
"7.	c #060504",
"8.	c #786B56",
"9.	c #D0C5AD",
"0.	c #6B0303",
"a.	c #690000",
"b.	c #898376",
"c.	c #56534B",
"d.	c #747064",
"e.	c #E1D7BF",
"f.	c #342F25",
"g.	c #84765F",
"h.	c #D3C8B0",
"i.	c #187300",
"j.	c #383631",
"k.	c #35342F",
"l.	c #3C3B36",
"m.	c #796C57",
"n.	c #928269",
"o.	c #D1C8B1",
"p.	c #1F1F1C",
"q.	c #98876D",
"r.	c #7E7D71",
"s.	c #B3AB98",
"t.	c #8B8577",
"u.	c #D2C9B4",
"v.	c #D4C9B1",
"w.	c #9A896E",
"x.	c #CFC6B0",
"y.	c #21211E",
"z.	c #CEC5AF",
"A.	c #363732",
"B.	c #787367",
"C.	c #B2AB99",
"D.	c #5A574E",
"E.	c #393A35",
"F.	c #43413A",
"G.	c #040403",
"H.	c #110F0C",
"I.	c #1E1D1B",
"J.	c #22221F",
"K.	c #12100D",
"L.	c #393329",
"M.	c #AA9A80",
"N.	c #D5CCB6",
"O.	c #20201E",
"P.	c #A7A08E",
"Q.	c #B0A895",
"R.	c #ADA693",
"S.	c #A69E8D",
"T.	c #1D1D1B",
"U.	c #A8987E",
"V.	c #342E25",
"W.	c #665B49",
"X.	c #B7A98F",
"Y.	c #BDB5A1",
"Z.	c #4A4841",
"`.	c #2B2A27",
" +	c #827D70",
".+	c #B1A997",
"++	c #B5AD9B",
"@+	c #A39C8B",
"#+	c #ABA392",
"$+	c #B5AD9A",
"%+	c #A8A190",
"&+	c #A39B8B",
"*+	c #282724",
"=+	c #292825",
"-+	c #2E2D29",
";+	c #3D3B36",
">+	c #55524A",
",+	c #B9B19F",
"'+	c #C3B69D",
")+	c #50473A",
"!+	c #C7BBA2",
"~+	c #C3BAA7",
"{+	c #D2C6AE",
"]+	c #8F7F66",
"^+	c #D6CBB3",
"/+	c #D5CAB2",
"(+	c #292D28",
"_+	c #282C27",
":+	c #252924",
"<+	c #9F9989",
"[+	c #171917",
"}+	c #272B26",
"|+	c #C6BEA9",
"1+	c #A08F74",
"2+	c #3C362C",
"3+	c #D8CEBA",
"4+	c #7C786B",
"5+	c #495047",
"6+	c #4D544B",
"7+	c #5B5950",
"8+	c #F3EBD9",
"9+	c #29251F",
"0+	c #93836A",
"a+	c #A59478",
"b+	c #262621",
"c+	c #191B19",
"d+	c #25241F",
"e+	c #B5A283",
"f+	c #94836A",
"g+	c #94846B",
"h+	c #AF9E7E",
"i+	c #B3A181",
"j+	c #97866C",
"k+	c #867B69",
"l+	c #AC9B81",
"m+	c #B5A385",
"n+	c #796F60",
"o+	c #45403A",
"p+	c #2E2D27",
"q+	c #BAA788",
"r+	c #787067",
"s+	c #6C6356",
"t+	c #625B54",
"u+	c #776F66",
"v+	c #47423D",
"                                                                                                                                ",
"                                                                                                                                ",
"                                                                                                                                ",
"                                                                                                                                ",
"                                                                                                                                ",
"                                                                                                                                ",
"                                                                                                                                ",
"                    . + + + + + + + + + + + + + + + + + + + + + + + + + + + + + + + + + + + + + + + + + + @                     ",
"                    # $ % % % % % % % % % % % % % % % % % % % % % % % % % % % % % % % % % % % % % % % % + &                     ",
"                  . + * % % % % % % % % % % % % % % % % % % % % % % % % % % % % % % % % % % % % % % % % = +                     ",
"                  - + % % % % % % % % % % % % % % % % % % % % % % % % % % % % % % % % % % % % % % % % % ; + >                   ",
"                  , ' % % % % % % % % % % % % % % % % % % % % % % % % % % % % % % % % % % % % % % % % % ) + !                   ",
"                  + ~ % % % % % % % % % % % % % % % % % % % % % % % % % % % % % % % % % % % % % % % % % % = {                   ",
"                . + ] % % % % % % % % % % % % % % % % % % % % % % % % % % % % % % % % % % % % % % % % % % ^ +                   ",
"                / = % % % % % % % % % % % % % % % % % % % % % % % % % % % % % % % % % % % % % % % % % % % ( + _                 ",
"                : < % % % % % % % % % % % % % % % % % % % % % % % % % % % % % % % % % % % % % % % % % % % % [ }                 ",
"              . + ) % % % % % % % % % % % % % % % % % % % % % % % % % % % % % % % % % % % % % % % % % % % % | :                 ",
"              1 = % % % % % % % % % % % % % % % % % % % % % % % % % % % % % % % % % % % % % % % % % % % % % 2 + 3               ",
"              4 5 % % % % % % % % % % % % % % % % % % % % % % % % % % % % % % % % % % % % % % % % % % % % % % + 6               ",
"              7 8 % % % % % % % % % % % % % % % % % % % % % % % % % % % % % % % % % % % % % % % % % % % % % % 9 0               ",
"            a = b % % % % % % % % % % % % % % % % % % % % % % % % % % % % % % % % % % % % % % % % % % % % % % c + d             ",
"            e f % % % % % % % % % % % % % % % % % % % % % % % % % % % % % % % % % % % % % % % % % % % % % % % g + h             ",
"            + i % % % % % % % % % % % % % % % % % % % % % % % % % % % % % % % % % % % % % % % % % % % % % % % j + k             ",
"            l m + + + + + + + + + + + + + + + + + + + + + + + + + + + + + + + + + + + + + + + + + + + + + + + + n o             ",
"          p q r r r r r r r r r r r r r r r r r r r r r r r r r r r r r r r r r s t r r r r r r r r r r r r r r r q p           ",
"          p r r r r r r r r r r r r r r r r r r r r r r r r r r r r r r r r r r u v w x y y z z y y y y y r r r r r p           ",
"          A r r r r r r r r r r r r r r r r r r r r r r r r r r r r r r r r r r B C r r y C C D E F G F y r r r r r p           ",
"          H r r r r r r r r r r r r r r r r r r r r r r r r r r r r r r r r r r y r r r I r r r I J J J I r r r r K p           ",
"          L M M M M M M M M M M M M M M M M M M M M M M M M M M M M M M M M M M M M M M M M M M M M M M M M M M M M L           ",
"        + N N N N O P N O P O N N N Q N O N N N N N N N N N N N N N N N N N N N N N N N N N N N N N N N N N N N N N N +         ",
"        + N N N N R S N S S S N T T T N S N N N N N N N N N N N N N N N N N N N N N N N N N N N N N N N N N N N N N N +         ",
"        + N N N N N N S U S S U N N N S U N N N N N N N N N N N N N N N N N N N N N N S S N N S S N N S S N N N N N N +         ",
"        + N N N N N N N N N N N N N N N N N N N N N N N N N N N N N N N N N N N N N N N N N N N N N N N N N N N N N N +         ",
"        + N N N N N N N N N N N N N N N N N N N N N N N N N N N N N N N N N N N N N N N N N N N N N N N N N N N N N N +         ",
"        + N N N N N N N N N N N N N N N N N N N N N N N N N N N N N N N N N N N N N N N N N N N N N N N N N N N N N N +         ",
"      V W r r r r r r r r r r r r r r r r r r r r r r r r r r r r r r r r r r r r r r r r r r r r r r X X r r r r r r p Y       ",
"      p Z r r r r r r `  . . ... . . . ... . . . ..... . . . ... . . . ...r r r r r r r r r r r r +.+.+.r +.+.r r r r W p       ",
"      p @.#.P $.%.&.*.r r =.=.=.-.J J =.-.J J J =.-.-.J J =.=.-.J =.=.=.-.r r r r r r r r r r r r r r r r r r r r r r ;.p       ",
"    . >.C ,.'.).!.!.~.r r =.=.=.-.J J =.-.J J J =.-.-.J J =.=.-.J =.=.=.-.r r r r r r r r r r {.r r r r r r r r r r r ].p       ",
"    ^./.r r K (._.:.<.r +.r r +.[.+.[.[.+.[.[.+.[.+.[.[.+.[.[.+.[.[.+.[.+.[.[.=.}.r r r r r |.}.=.}.}.=.}.=.=.}.1.r r q p       ",
"    2.3.r r r }.}.+.+.+.+.+.+.+.+.+.+.+.+.+.+.+.+.+.+.+.+.+.+.+.+.+.+.+.+.+.+.}.}.r r r r r 4.5.}.J J }.J }.}.J 6.r r #.p 7.    ",
"    8.9.r 0.a.r =.}.}.+.[.[.+.[.+.[.[.+.[.[.+.[.+.[.[.+.[.[.+.[.+.[.[.+.[.=.=.=.J }.b.r r r c.}.}.}.}.}.}.}.}.}.}.d.r e.p f.    ",
"    g.h.r i.i.r =.}.}.+.[.[.+.[.+.[.[.+.[.[.+.[.+.[.[.+.[.[.+.[.+.[.[.+.[.=.=.=.J }.j.r r r k.}.}.}.}.}.}.}.}.}.}.l.r r W m.    ",
"    n.K r r r r }.}.}.+.+.+.+.+.+.+.+.+.+.+.+.+.+.+.+.+.+.+.+.+.+.+.+.+.+.}.}.}.}.}.}.r r r o.[.+.[.[.+.[.[.+.J }.p.r r >.'.    ",
"    q.,.r r.=.}.=.}.}.[.+.[.[.+.[.[.+.[.+.[.[.+.[.[.+.[.+.[.[.+.[.[.+.r +.[.[.J }.}.r r r r s.t.+.+.+.+.+.+.+.}.}.}.u.r v.w.    ",
"    p C x.y.}.}.}.}.}.[.+.[.[.+.[.[.+.[.+.[.[.+.[.[.+.[.+.[.[.+.[.[.+.[.+.[.[.}.}.}.r r r r z.[.+.[.[.+.[.[.+.[.A.}.B.r t p     ",
"    p r C.}.}.}.}.}.}.+.+.+.+.+.+.+.+.+.+.+.+.+.+.+.+.+.+.+.+.+.+.+.+.+.+.+.+.}.}.}.D.r r r C [.+.[.[.+.[.[.+.[.E.}.F.r C p G.  ",
"  H.W r r a.r =.=.=.=.}.[.+.[.[.+.[.[.+.[.+.[.[.+.[.[.+.r +.[.[.+.[.[.+.[.=.=.J J }.I.r r r C +.+.+.+.+.+.+.+.+.}.}.J.r r p K.  ",
"  L.M.r r a.N.}.}.}.}.O.P.+.P.[.+.[.[.+.[.+.[.[.+.[.[.+.[.+.[.[.+.Q.R.+.S.}.}.}.}.}.}.r r r r [.+.[.[.+.[.=.=.J J }.T.r r U.V.  ",
"  W.X.r r r Y.Z.`.O.y. +.+++@+[.[.[.[.[.[.[.[.[.[.[.[.[.[.[.[.[.+.#+$+%+&+*+`.=+-+;+>+r r r r [.+.[.[.+.[.}.}.}.}.}.}.,+r '+)+  ",
"  n.!+r r r r r r r r r r r r [.[.[.[.[.[.[.[.[.[.[.[.[.[.[.[.[.+.r r r r r r r r r r r r r r +.+.+.+.+.+.}.}.}.}.}.}.~+r {+]+  ",
"  w.^+r r r r r r r r r r r r +.+.+.+.+.+.+.+.+.+.+.+.+.+.+.+.+.+.r r r r r r r r r r r r r r r r r r r r r r r r r r r r /+p   ",
"  p t r (+(+(+(+(+(+(+(+(+(+(+(+(+(+(+(+(+(+(+(+(+(+(+(+(+(+(+(+(+(+(+(+(+(+(+(+(+(+(+(+(+(+(+(+(+(+(+(+(+(+(+(+(+(+(+(+r C p   ",
"  p t r _+(+(+(+(+(+(+(+(+(+(+(+(+(+(+(+(+(+(+(+(+(+(+(+(+(+(+(+(+(+(+(+(+(+(+(+(+(+(+(+(+(+(+(+(+(+(+(+(+(+(+(+(+(+(+:+r r p   ",
"  p /+<+[+(+(+(+(+(+(+(+(+(+(+(+(+(+(+(+(+(+(+(+(+(+(+(+(+(+(+(+(+(+(+(+(+(+(+(+(+(+(+(+(+(+(+(+(+(+(+(+(+(+(+(+(+(+}+[+|+r 1+  ",
"2+3+M 4+5+6+6+6+6+6+6+6+6+6+6+6+6+6+6+6+6+6+6+6+6+6+6+6+6+6+6+6+6+6+6+6+6+6+6+6+6+6+6+6+6+6+6+6+6+6+6+6+6+6+6+6+6+6+6+6+7+8+M 9+",
"0+a+N b+c+[+[+[+[+[+[+[+[+[+[+[+[+[+[+[+[+[+[+[+[+[+[+[+[+[+[+[+[+[+[+[+[+[+[+[+[+[+[+[+[+[+[+[+[+[+[+[+[+[+[+[+[+[+[+[+d+N e+f+",
"g+h+N [+[+[+[+[+[+[+[+[+[+[+[+[+[+[+[+[+[+[+[+[+[+[+[+[+[+[+[+[+[+[+[+[+[+[+[+[+[+[+[+[+[+[+[+[+[+[+[+[+[+[+[+[+[+[+[+[+[+N i+j+",
"k+l+N [+[+[+[+[+[+[+[+[+[+[+[+[+[+[+[+[+[+[+[+[+[+[+[+[+[+[+[+[+[+[+[+[+[+[+[+[+[+[+[+[+[+[+[+[+[+[+[+[+[+[+[+[+[+[+[+[+[+N m+n+",
"o++ N p+[+[+[+[+[+[+[+[+[+[+[+[+[+[+[+[+[+[+[+[+[+[+[+[+[+[+[+[+[+[+[+[+[+[+[+[+[+[+[+[+[+[+[+[+[+[+[+[+[+[+[+[+[+[+[+[+p+q+r+s+",
"  t++ + + + + + + + + + + + + + + + + + + + + + + + + + + + + + + + + + + + + + + + + + + + + + + + + + + + + + + + + + + u+v+  ",
"              [+[+[+[+                                                                                    [+[+[+[+              ",
"              [+[+[+[+                                                                                    [+[+[+[+              ",
"                                                                                                                                "};
